<svg xmlns="http://www.w3.org/2000/svg" viewBox="0 0 27 18">
  <rect width="27" height="18" fill="#003399"/>
  <g fill="#ffcc00" transform="translate(13.5 9)">
    <polygon points="0,-7 0.45,-5.62 1.9,-5.62 0.73,-4.77 1.18,-3.38 0,-4.24 -1.18,-3.38 -0.73,-4.77 -1.9,-5.62 -0.45,-5.62"/>
    <polygon points="0,-7 0.45,-5.62 1.9,-5.62 0.73,-4.77 1.18,-3.38 0,-4.24 -1.18,-3.38 -0.73,-4.77 -1.9,-5.62 -0.45,-5.62" transform="rotate(30)"/>
    <polygon points="0,-7 0.45,-5.62 1.9,-5.62 0.73,-4.77 1.18,-3.38 0,-4.24 -1.18,-3.38 -0.73,-4.77 -1.9,-5.62 -0.45,-5.62" transform="rotate(60)"/>
    <polygon points="0,-7 0.45,-5.62 1.9,-5.62 0.73,-4.77 1.18,-3.38 0,-4.24 -1.18,-3.38 -0.73,-4.77 -1.9,-5.62 -0.45,-5.62" transform="rotate(90)"/>
    <polygon points="0,-7 0.45,-5.62 1.9,-5.62 0.73,-4.77 1.18,-3.38 0,-4.24 -1.18,-3.38 -0.73,-4.77 -1.9,-5.62 -0.45,-5.62" transform="rotate(120)"/>
    <polygon points="0,-7 0.45,-5.62 1.9,-5.62 0.73,-4.77 1.18,-3.38 0,-4.24 -1.18,-3.38 -0.73,-4.77 -1.9,-5.62 -0.45,-5.62" transform="rotate(150)"/>
    <polygon points="0,-7 0.45,-5.62 1.9,-5.62 0.73,-4.77 1.18,-3.38 0,-4.24 -1.18,-3.38 -0.73,-4.77 -1.9,-5.62 -0.45,-5.62" transform="rotate(180)"/>
    <polygon points="0,-7 0.45,-5.62 1.9,-5.62 0.73,-4.77 1.18,-3.38 0,-4.24 -1.18,-3.38 -0.73,-4.77 -1.9,-5.62 -0.45,-5.62" transform="rotate(210)"/>
    <polygon points="0,-7 0.45,-5.62 1.9,-5.62 0.73,-4.77 1.18,-3.38 0,-4.24 -1.18,-3.38 -0.73,-4.77 -1.9,-5.62 -0.45,-5.62" transform="rotate(240)"/>
    <polygon points="0,-7 0.45,-5.62 1.9,-5.62 0.73,-4.77 1.18,-3.38 0,-4.24 -1.18,-3.38 -0.73,-4.77 -1.9,-5.62 -0.45,-5.62" transform="rotate(270)"/>
    <polygon points="0,-7 0.45,-5.62 1.9,-5.62 0.73,-4.77 1.18,-3.38 0,-4.24 -1.18,-3.38 -0.73,-4.77 -1.9,-5.62 -0.45,-5.62" transform="rotate(300)"/>
    <polygon points="0,-7 0.45,-5.62 1.9,-5.62 0.73,-4.77 1.18,-3.38 0,-4.24 -1.18,-3.38 -0.73,-4.77 -1.9,-5.62 -0.45,-5.62" transform="rotate(330)"/>
  </g>
</svg>
